# xmcd CD database file generated by OrangeCD 5.2
#
# Track frame offsets:
#	150
#	28952
#	67121
#	104889
#	135935
#	156558
#	185587
#	223156
#
# Disc length: 3429 seconds
#
# Revision: 1
# Processed by: cddbd v1.5.1PL0 Copyright (c) Steve Scherf et al.
# Submitted via: OrangeCD 5.2
#
DISCID=820d6308
DTITLE=Odd Man Out - Odd Man Out
DYEAR=2001
DGENRE=Jazz
TTITLE0=Just Got By
TTITLE1=Piece of Mind
TTITLE2=The Thrill Is Gone
TTITLE3=Snow White
TTITLE4=Abram Blues
TTITLE5=Somnambulance
TTITLE6=Looking Up
TTITLE7=Think of One
EXTD=YEAR: 2001
EXTT0=
EXTT1=
EXTT2=
EXTT3=
EXTT4=
EXTT5=
EXTT6=
EXTT7=
PLAYORDER=
